<svg xmlns="http://www.w3.org/2000/svg" width="400" height="150" viewBox="0 0 400 150" version="1.1"><path d="M 71.750 15.565 C 71.338 15.988, 71 27.508, 71 41.167 L 71 66 76.500 66 L 82 66 82 57 L 82 48 85.794 48 C 89.517 48, 89.682 48.164, 94.577 56.750 L 99.565 65.500 105.282 65.800 C 112.194 66.162, 112.160 66.764, 105.859 55.754 L 100.719 46.771 103.879 44.297 C 112.907 37.232, 111.861 23.675, 101.853 18.028 C 97.390 15.510, 73.697 13.572, 71.750 15.565 M 236 22.948 C 236 27.895, 235.937 28, 233 28 C 230.167 28, 230 28.222, 230 32 C 230 35.778, 230.167 36, 233 36 L 236 36 236 47.453 C 236 63.045, 238.492 67, 248.319 67 C 256.276 67, 259.002 58.452, 251.250 57.810 L 247.500 57.500 247.216 46.750 L 246.932 36 250.966 36 L 255 36 255 32 C 255 28.009, 254.991 28, 251.055 28 L 247.110 28 246.805 23.250 L 246.500 18.500 241.250 18.198 L 236 17.895 236 22.948 M 82 32.113 L 82 39.226 89.109 38.824 C 103.833 37.992, 103.422 25, 88.671 25 L 82 25 82 32.113 M 122.500 28.881 C 108.062 35.511, 108.204 59.413, 122.718 65.623 C 132.078 69.628, 149.195 63.161, 146.667 56.575 C 145.725 54.120, 139.843 54.221, 136.673 56.747 C 131.909 60.544, 125.905 59.464, 123.163 54.316 C 120.960 50.179, 121.458 50, 135.140 50 L 148.280 50 147.701 44.391 C 146.313 30.939, 134.223 23.498, 122.500 28.881 M 168.021 28.116 C 166.657 28.660, 164.744 29.826, 163.771 30.708 C 162.127 32.195, 162 32.151, 162 30.100 C 162 28.088, 161.576 27.918, 157.250 28.195 L 152.500 28.500 152.228 47.250 L 151.956 66 157.478 66 L 163 66 163 53.073 C 163 38.986, 164.316 36, 170.524 36 C 175.986 36, 176.961 38.396, 177.242 52.500 L 177.500 65.500 182.500 65.793 L 187.500 66.087 187.331 50.890 C 187.184 37.698, 186.911 35.351, 185.260 33.097 C 181.486 27.944, 173.926 25.760, 168.021 28.116 M 203.500 28.204 C 197.533 30.284, 192.199 37.244, 195.143 39.110 C 197.766 40.772, 202.690 40.099, 204.165 37.877 C 206.882 33.786, 217 35.396, 217 39.919 C 217 41.249, 215.338 41.835, 208.907 42.772 C 196.245 44.618, 190.682 49.725, 192.470 57.863 C 194.173 65.618, 205.821 69.663, 213.463 65.154 C 216.289 63.487, 217 63.362, 217 64.534 C 217 65.627, 218.273 66, 222 66 L 227 66 227 51.901 C 227 29.925, 219.694 22.558, 203.500 28.204 M 267.384 28.913 C 252.555 35.647, 253.172 60.215, 268.315 65.936 C 281.742 71.009, 294 61.922, 294 46.895 C 294 31.731, 280.807 22.817, 267.384 28.913 M 127.357 35.991 C 125.279 36.830, 122 40.645, 122 42.223 C 122 42.650, 125.600 43, 130 43 C 134.400 43, 138 42.753, 138 42.450 C 138 40.737, 134.736 36, 133.556 36 C 132.790 36, 131.564 35.803, 130.832 35.563 C 130.099 35.322, 128.536 35.515, 127.357 35.991 M 269.405 38.105 C 266.464 41.354, 266.675 53.119, 269.728 56.172 C 278.126 64.571, 288.789 49.952, 282.070 39.250 C 279.496 35.150, 272.640 34.530, 269.405 38.105 M 209.235 50.060 C 202.854 51.318, 200.830 54.430, 204.200 57.800 C 207.878 61.478, 217 57.021, 217 51.545 C 217 48.753, 216.423 48.643, 209.235 50.060" stroke="none" fill="#afafae" fill-rule="evenodd"/><path d="M 329.264 9.205 C 328.334 10.345, 321.257 36.497, 299.824 118 C 296.569 130.375, 293.687 141.240, 293.419 142.145 C 292.621 144.839, 295.735 147, 300.416 147 C 304.493 147, 308.005 144.879, 307.997 142.421 C 307.995 141.915, 309.563 135.650, 311.481 128.500 C 313.399 121.350, 317.893 104.475, 321.468 91 C 325.043 77.525, 328.876 63.125, 329.986 59 C 344.510 4.999, 344.086 8.637, 335.910 8.205 C 332.230 8.011, 329.959 8.352, 329.264 9.205 M 26.835 47.685 C -5.871 80.295, -5.903 74.879, 27.190 107.750 C 52.663 133.051, 53.934 133.893, 58.826 128.686 C 63.184 124.046, 62.431 122.935, 39.500 100.168 C 13.768 74.619, 13.768 81.006, 39.500 54.954 C 62.805 31.360, 63.853 29.736, 58.811 25.039 C 54.172 20.717, 53.170 21.427, 26.835 47.685 M 346 31 C 341.238 35.762, 342.530 37.899, 362 57.473 C 383.915 79.505, 383.966 75.388, 361.500 98.053 C 340.651 119.087, 339.157 121.888, 346.684 125.850 C 350.858 128.047, 352.425 126.883, 373.617 105.838 C 404.157 75.508, 404.036 80.030, 375.092 50.785 C 351.995 27.449, 350.541 26.459, 346 31 M 129.818 77.500 C 128.001 81.487, 130.091 85, 134.279 85 C 138.274 85, 140 83.491, 140 80 C 140 74.580, 132.039 72.625, 129.818 77.500 M 224.571 76.571 C 221.027 80.116, 223.521 85, 228.875 85 C 232.010 85, 232.889 84.539, 233.874 82.377 C 236.371 76.896, 228.906 72.237, 224.571 76.571 M 71 102 L 71 127 75.975 127 L 80.950 127 81.225 110.750 L 81.500 94.500 87.417 110.799 L 93.334 127.099 97.326 126.799 L 101.317 126.500 107.102 110.500 L 112.886 94.500 113.193 110.500 L 113.500 126.500 118 126.463 L 122.500 126.425 122.767 101.713 L 123.035 77 116.267 77.011 L 109.500 77.022 103.541 93.502 C 100.263 102.566, 97.277 109.648, 96.904 109.241 C 96.530 108.833, 93.862 101.975, 90.975 94 C 88.087 86.025, 85.513 78.938, 85.255 78.250 C 84.942 77.416, 82.490 77, 77.893 77 L 71 77 71 102 M 242 84.500 C 242 88.633, 241.796 89, 239.500 89 C 237.250 89, 237 89.400, 237 93 C 237 96.564, 237.264 97, 239.418 97 C 241.831 97, 241.838 97.032, 242.168 109.589 C 242.578 125.127, 243.856 127, 254.056 127 L 260 127 260 123 C 260 119.624, 259.678 119, 257.934 119 C 252.670 119, 252 117.642, 252 106.965 L 252 97 256 97 L 260 97 260 93 L 260 89 256 89 L 252 89 252 84.500 L 252 80 247 80 L 242 80 242 84.500 M 130 107.945 L 130 127 135.022 127 L 140.044 127 139.772 108.250 L 139.500 89.500 134.750 89.195 L 130 88.890 130 107.945 M 146 107.969 L 146 126.938 150.750 126.719 L 155.500 126.500 155.779 113.879 C 156.091 99.749, 157.039 97.667, 163.154 97.667 C 168.264 97.667, 169 99.746, 169 114.173 L 169 126.964 174 126.851 L 179 126.739 179 112.820 C 179 91.974, 169.983 82.319, 158.215 90.562 C 156.193 91.978, 155.929 91.978, 155.385 90.562 C 154.968 89.474, 153.453 89, 150.393 89 L 146 89 146 107.969 M 192.149 90.696 C 187.281 93.095, 183.748 98.995, 183.196 105.648 C 181.188 129.865, 213.141 136.232, 219.034 112.789 C 223.119 96.536, 207.068 83.346, 192.149 90.696 M 224 107.982 L 224 126.964 229 126.851 L 234 126.739 234 107.869 L 234 89 229 89 L 224 89 224 107.982 M 270.500 90.556 C 266.695 92.515, 264.051 95.859, 264.022 98.750 C 263.992 101.830, 270.777 102.009, 273.500 99 C 276.579 95.597, 283.868 96.392, 285.306 100.288 C 286.086 102.399, 285.848 102.496, 276.021 104.064 C 262.747 106.183, 257.272 116.118, 265.077 123.923 C 268.642 127.488, 278.744 128.417, 282.559 125.532 C 285.019 123.671, 286 123.631, 286 125.393 C 286 126.407, 287.289 126.747, 290.750 126.643 L 295.500 126.500 295.781 113.629 C 296.252 92.014, 285.946 82.607, 270.500 90.556 M 196.092 99.402 C 190.001 105.885, 193.316 119, 201.045 119 C 206.269 119, 209 115.224, 209 108 C 209 98.207, 201.751 93.378, 196.092 99.402 M 277.413 110.943 C 272.960 112.007, 272 112.820, 272 115.524 C 272 122.741, 283.632 120.356, 285.530 112.750 C 286.286 109.723, 284.333 109.288, 277.413 110.943" stroke="none" fill="#047fd3" fill-rule="evenodd"/></svg>