<svg xmlns="http://www.w3.org/2000/svg" xmlns:xlink="http://www.w3.org/1999/xlink" width="3780" zoomAndPan="magnify" viewBox="0 0 2835 2834.999876" height="3780" preserveAspectRatio="xMidYMid meet" version="1.0"><defs><clipPath id="c64e96e70b"><path d="M 220.308594 299 L 1399 299 L 1399 2801.25 L 220.308594 2801.25 Z M 220.308594 299 " clip-rule="nonzero"/></clipPath><clipPath id="a5c7c09b44"><path d="M 220.308594 2.25 L 220.308594 2798.765625 C 220.308594 2800.007812 221.316406 2801.015625 222.558594 2801.015625 L 2612.085938 2801.015625 C 2613.332031 2801.015625 2614.335938 2800.007812 2614.335938 2798.765625 L 2614.335938 2.25 C 2614.335938 1.007812 2613.332031 0 2612.085938 0 L 222.558594 0 C 221.316406 0 220.308594 1.007812 220.308594 2.25 Z M 220.308594 2.25 " clip-rule="nonzero"/></clipPath><clipPath id="19a016b04c"><path d="M 258 71 L 2614 71 L 2614 2801.25 L 258 2801.25 Z M 258 71 " clip-rule="nonzero"/></clipPath><clipPath id="356c153969"><path d="M 220.308594 2.25 L 220.308594 2798.765625 C 220.308594 2800.007812 221.316406 2801.015625 222.558594 2801.015625 L 2612.085938 2801.015625 C 2613.332031 2801.015625 2614.335938 2800.007812 2614.335938 2798.765625 L 2614.335938 2.25 C 2614.335938 1.007812 2613.332031 0 2612.085938 0 L 222.558594 0 C 221.316406 0 220.308594 1.007812 220.308594 2.25 Z M 220.308594 2.25 " clip-rule="nonzero"/></clipPath><clipPath id="b01ac30c01"><path d="M 740.492188 447.960938 L 2415 447.960938 L 2415 674.003906 L 740.492188 674.003906 Z M 740.492188 447.960938 " clip-rule="nonzero"/></clipPath><clipPath id="4459fec86d"><path d="M 742.742188 447.960938 L 2412.765625 447.960938 C 2414.007812 447.960938 2415.015625 448.96875 2415.015625 450.210938 L 2415.015625 671.753906 C 2415.015625 672.996094 2414.007812 674.003906 2412.765625 674.003906 L 742.742188 674.003906 C 741.5 674.003906 740.492188 672.996094 740.492188 671.753906 L 740.492188 450.210938 C 740.492188 448.96875 741.5 447.960938 742.742188 447.960938 Z M 742.742188 447.960938 " clip-rule="nonzero"/></clipPath><clipPath id="bf9843b37e"><path d="M 420 496 L 2415 496 L 2415 2125 L 420 2125 Z M 420 496 " clip-rule="nonzero"/></clipPath><clipPath id="4b93792cec"><path d="M 419.632812 1947.453125 L 2275.835938 495.4375 L 2415.109375 673.476562 L 558.902344 2125.492188 Z M 419.632812 1947.453125 " clip-rule="nonzero"/></clipPath><clipPath id="67bc508a87"><path d="M 421.402344 1946.066406 L 2273.976562 496.890625 C 2274.953125 496.125 2276.367188 496.296875 2277.132812 497.277344 L 2413.632812 671.773438 C 2414.398438 672.75 2414.226562 674.164062 2413.246094 674.929688 L 560.675781 2124.105469 C 559.695312 2124.871094 558.28125 2124.699219 557.515625 2123.71875 L 421.019531 1949.222656 C 420.253906 1948.246094 420.425781 1946.832031 421.402344 1946.066406 Z M 421.402344 1946.066406 " clip-rule="nonzero"/></clipPath><clipPath id="5c321af630"><path d="M 1487 1214 L 2203 1214 L 2203 2027 L 1487 2027 Z M 1487 1214 " clip-rule="nonzero"/></clipPath><clipPath id="e7aab2e5ac"><path d="M 1662.035156 1213.804688 L 2203.925781 1885.035156 L 2028.042969 2027.023438 L 1486.152344 1355.796875 Z M 1662.035156 1213.804688 " clip-rule="nonzero"/></clipPath><clipPath id="a98d1dd229"><path d="M 1663.445312 1215.558594 L 2202.464844 1883.230469 C 2203.246094 1884.195312 2203.09375 1885.613281 2202.128906 1886.394531 L 2029.75 2025.554688 C 2028.785156 2026.335938 2027.367188 2026.183594 2026.585938 2025.21875 L 1487.566406 1357.546875 C 1486.785156 1356.578125 1486.9375 1355.164062 1487.90625 1354.382812 L 1660.28125 1215.21875 C 1661.25 1214.4375 1662.667969 1214.589844 1663.445312 1215.558594 Z M 1663.445312 1215.558594 " clip-rule="nonzero"/></clipPath></defs><g clip-path="url(#c64e96e70b)"><g clip-path="url(#a5c7c09b44)"><path fill="#ffffff" d="M 1035.921875 2670.742188 C 1152.394531 2726.5625 1274.515625 2768.691406 1398.21875 2801.339844 C 1160.199219 2707.652344 935.4375 2584.046875 744.285156 2420.035156 C 515.261719 2216.386719 299.121094 1955.867188 295.625 1641.492188 C 292.707031 1194.796875 285.621094 745.464844 258.191406 299.585938 C 230.757812 745.5625 223.722656 1194.796875 220.753906 1641.539062 C 228.890625 2116.574219 644.949219 2473.367188 1035.921875 2670.742188 Z M 1035.921875 2670.742188 " fill-opacity="1" fill-rule="nonzero"/></g></g><g clip-path="url(#19a016b04c)"><g clip-path="url(#356c153969)"><path fill="#ffffff" d="M 2613.980469 244.292969 C 2613.980469 244.292969 2562.710938 227.34375 2562.710938 227.34375 C 1813.796875 0.238281 988.480469 18.335938 258.191406 299.585938 C 981.347656 129.589844 1750.988281 144.429688 2461.941406 357.558594 C 2460.121094 595.003906 2469.121094 1647.617188 2469.167969 1647.617188 C 2473.476562 2229.457031 1886.945312 2605.589844 1398.21875 2801.386719 C 1948.894531 2669.210938 2593.539062 2287.574219 2607.328125 1647.617188 Z M 2613.980469 244.292969 " fill-opacity="1" fill-rule="nonzero"/></g></g><g clip-path="url(#b01ac30c01)"><g clip-path="url(#4459fec86d)"><path fill="#ffffff" d="M 740.492188 447.960938 L 2414.609375 447.960938 L 2414.609375 674.003906 L 740.492188 674.003906 Z M 740.492188 447.960938 " fill-opacity="1" fill-rule="nonzero"/></g></g><g clip-path="url(#bf9843b37e)"><g clip-path="url(#4b93792cec)"><g clip-path="url(#67bc508a87)"><path fill="#ffffff" d="M 419.632812 1947.453125 L 2275.835938 495.4375 L 2415.109375 673.476562 L 558.902344 2125.492188 Z M 419.632812 1947.453125 " fill-opacity="1" fill-rule="nonzero"/></g></g></g><g clip-path="url(#5c321af630)"><g clip-path="url(#e7aab2e5ac)"><g clip-path="url(#a98d1dd229)"><path fill="#ffffff" d="M 1662.035156 1213.804688 L 2203.925781 1885.035156 L 2028.042969 2027.023438 L 1486.152344 1355.796875 Z M 1662.035156 1213.804688 " fill-opacity="1" fill-rule="nonzero"/></g></g></g></svg>